<mxfile host="app.diagrams.net" modified="2023-07-20T02:26:29.483Z" agent="Mozilla/5.0 (Macintosh; Intel Mac OS X 10_15_7) AppleWebKit/537.36 (KHTML, like Gecko) Chrome/114.0.0.0 Safari/537.36" version="21.3.6" etag="-725g5njTNLv6dCal17w" type="github">
  <diagram name="ページ1" id="NC7s3mYTM-Sv4haXKh-_">
    <mxGraphModel>
      <root>
        <mxCell id="0" />
        <mxCell id="1" parent="0" />
      </root>
    </mxGraphModel>
  </diagram>
</mxfile>
